# xmcd CD database file
#
# Track frame offsets:
#	150
#	15345
#	29075
#	41880
#	54023
#	68958
#	87895
#	97088
#	112993
#	131948
#	146768
#	160655
#
# Disc length: 2332 seconds
#
# Revision: 21
# Processed by: cddbd v1.5.2PL0 Copyright (c) Steve Scherf et al.
# Submitted via: CDex 1.86
#
DISCID=a2091a0c
DTITLE=The Sex Pistols - Never Mind The Bollocks
DYEAR=1976
DGENRE=Punk rock
TTITLE0=Holidays In The Sun
TTITLE1=Bodies
TTITLE2=No Feelings
TTITLE3=Liar
TTITLE4=God Save The Queen
TTITLE5=Problems
TTITLE6=Seventeen
TTITLE7=Anarchy In The U.K.
TTITLE8=Submission
TTITLE9=Pretty Vacant
TTITLE10=New York
TTITLE11=E.M.I.
EXTD=YEAR: 1976
EXTT0=
EXTT1=
EXTT2=
EXTT3=
EXTT4=
EXTT5=
EXTT6=
EXTT7=
EXTT8=
EXTT9=
EXTT10=
EXTT11=
PLAYORDER=
